<?xml version="1.0" encoding="utf-8"?>
<!-- Generator: Adobe Illustrator 17.0.0, SVG Export Plug-In . SVG Version: 6.00 Build 0)  -->
<!DOCTYPE svg PUBLIC "-//W3C//DTD SVG 1.1//EN" "http://www.w3.org/Graphics/SVG/1.1/DTD/svg11.dtd">
<svg version="1.1" id="Layer_1" xmlns="http://www.w3.org/2000/svg" xmlns:xlink="http://www.w3.org/1999/xlink" x="0px" y="0px"
	 width="300px" height="300px" viewBox="0 0 300 300" enable-background="new 0 0 300 300" xml:space="preserve">
<g>
	<path fill="#D5D3D2" d="M149.864,110.168c-10.978-5.764-42.503-19.265-69.691-1.323c-31.416,20.722-27.481,62.76-9.654,95.227
		c12.873,23.436,34.795,44.496,58.637,47.397c6.947,0.847,14.055,0.154,21.15-2.467c3.313,1.194,6.625,1.987,9.922,2.389
		c28.047,3.421,54.845-20.638,69.55-47.803c17.632-32.582,21.309-74.65-10.241-95.184
		C192.229,90.64,160.802,104.338,149.864,110.168z M216.734,196.534c-14.259,26.344-40.609,47.769-63.468,37.69
		c-0.061-0.022-0.123-0.036-0.183-0.057c-0.249-0.101-0.515-0.176-0.774-0.25c-0.204-0.06-0.408-0.127-0.615-0.167
		c-0.268-0.054-0.541-0.073-0.821-0.093c-0.196-0.017-0.397-0.048-0.594-0.051c-0.282,0.001-0.563,0.044-0.849,0.073
		c-0.194,0.026-0.385,0.031-0.58,0.071c-0.26,0.053-0.511,0.135-0.768,0.217c-0.213,0.066-0.424,0.125-0.633,0.212
		c-0.074,0.026-0.138,0.033-0.206,0.067c-22.773,10.216-49.3-11.046-63.727-37.311c-14.554-26.499-18.709-60.193,4.825-75.715
		c24.785-16.358,57.294,3.552,57.615,3.753c0.143,0.095,0.3,0.143,0.452,0.225c0.231,0.127,0.47,0.255,0.719,0.356
		c0.222,0.091,0.447,0.153,0.678,0.224c0.232,0.063,0.457,0.133,0.691,0.183c0.235,0.043,0.472,0.064,0.703,0.086
		c0.244,0.023,0.488,0.045,0.735,0.047c0.219-0.001,0.435-0.032,0.655-0.047c0.257-0.025,0.514-0.05,0.775-0.103
		c0.21-0.045,0.423-0.111,0.635-0.169c0.242-0.076,0.484-0.146,0.721-0.244c0.245-0.097,0.473-0.232,0.707-0.359
		c0.151-0.08,0.306-0.139,0.459-0.233c0.322-0.208,32.527-20.396,57.565-4.109C235.081,136.21,231.131,169.931,216.734,196.534z"/>
	<path fill="#D5D3D2" d="M148.567,106.283c0.995,0.121,2.035,0.036,3.054-0.27c2.829-0.862,27.85-8.961,35.029-27.368
		c2.292-5.889,3.611-15.313-3.139-26.801c-1.416-2.396-4.046-3.804-6.833-3.643c-0.953,0.06-23.411,1.563-33.514,17.439
		c-6.087,9.569-6.288,21.691-0.596,36.015C143.599,104.251,145.945,105.963,148.567,106.283z M155.647,73.642
		c3.69-5.831,11.536-8.707,17.139-9.915c1.185,3.419,1.198,6.555,0.053,9.513c-2.779,7.157-11.747,12.697-18.732,15.911
		C152.638,82.797,153.152,77.601,155.647,73.642z"/>
	<path fill="#D5D3D2" d="M129.207,124.559c-15.487-6.174-31.999-3.367-42.099,7.16c-9.842,10.269-11.427,25.229-4.335,41.036
		c1.105,2.457,3.383,4.026,5.873,4.33c1.293,0.158,2.65-0.03,3.927-0.601c3.733-1.676,5.404-6.06,3.729-9.8
		c-4.555-10.161-4.021-18.933,1.51-24.702c5.805-6.046,16.197-7.517,25.897-3.652c3.796,1.515,8.116-0.337,9.63-4.133
		C134.863,130.387,133.01,126.074,129.207,124.559z"/>
</g>
</svg>
