<?xml version="1.0" encoding="utf-8"?>
<!-- Generator: Adobe Illustrator 17.0.0, SVG Export Plug-In . SVG Version: 6.00 Build 0)  -->
<!DOCTYPE svg PUBLIC "-//W3C//DTD SVG 1.1//EN" "http://www.w3.org/Graphics/SVG/1.1/DTD/svg11.dtd">
<svg version="1.1" id="Layer_1" xmlns="http://www.w3.org/2000/svg" xmlns:xlink="http://www.w3.org/1999/xlink" x="0px" y="0px"
	 width="300px" height="300px" viewBox="0 0 300 300" enable-background="new 0 0 300 300" xml:space="preserve">
<g>
	<path fill="#D5D3D2" d="M86.564,244.973c1.674,0.208,3.41,0.312,5.215,0.311l34.781-0.02l34.775-0.021
		c18.787-0.009,30.924-11.684,30.918-29.758l-0.001-2.144l16.101-0.012c18.788-0.016,30.926-11.698,30.919-29.766
		c-0.021-19.084-0.035-47.124-0.039-66.227c-0.022-18.055-12.18-29.716-30.966-29.714l-16.101,0.012l-0.017-25.515
		c-0.004-4.098-3.349-7.426-7.406-7.403l-58.307,0.031l-58.302,0.046c-4.091,0.005-7.402,3.323-7.404,7.413
		c0.003,3.773,2.831,6.882,6.484,7.337c0.305,0.038,0.613,0.062,0.93,0.06l58.302-0.046l50.903-0.029l0.089,136.384
		c-0.001,0.007-0.003,0.021-0.003,0.028c-0.002,0.014,0.003,0.029,0.002,0.042l0.008,9.507c-0.001,9.915-5.422,14.944-16.112,14.946
		l-34.782,0.02l-34.788,0.019c-10.677,0.003-16.118-5.004-16.132-14.913L75.546,82.3c-0.005-4.097-3.352-7.399-7.406-7.403
		c-4.091,0.005-7.402,3.323-7.404,7.413L60.82,215.57C60.845,231.905,70.78,243.008,86.564,244.973z M208.27,102.431
		c10.718,0.002,16.144,5.021,16.153,14.916c0.005,19.097,0.017,47.15,0.039,66.227c0,9.908-5.421,14.937-16.119,14.945
		l-16.101,0.012l-0.065-96.087L208.27,102.431z"/>
	<path fill="#D5D3D2" d="M171.704,104.774l0.001-10.711c0.004-1.96-0.776-3.848-2.169-5.234c-1.386-1.385-3.262-2.176-5.237-2.168
		l-75.677,0.047c-4.091,0.005-7.402,3.323-7.403,7.406l0.006,10.712c0.002,1.968,0.783,3.849,2.175,5.242
		c1.166,1.168,2.69,1.9,4.315,2.103c0.305,0.038,0.613,0.062,0.923,0.059l75.671-0.048
		C168.391,112.182,171.709,108.865,171.704,104.774z"/>
	<path fill="#D5D3D2" d="M142.277,143.625c4.795-0.002,8.701-3.902,8.694-8.712c-0.007-4.817-3.907-8.716-8.703-8.714
		c-4.831,0.005-8.73,3.906-8.723,8.723C133.545,139.731,137.453,143.63,142.277,143.625z"/>
	<path fill="#D5D3D2" d="M105.536,146.13c-4.817,0.006-8.716,3.907-8.709,8.724c0.001,4.802,3.901,8.708,8.725,8.702
		c4.803-0.008,8.709-3.908,8.707-8.711C114.254,150.022,110.345,146.129,105.536,146.13z"/>
	<path fill="#D5D3D2" d="M142.958,188.051c4.803-0.008,8.702-3.909,8.702-8.719c-0.007-4.817-3.914-8.717-8.71-8.715
		c-4.824,0.006-8.723,3.907-8.724,8.73C134.234,184.151,138.133,188.056,142.958,188.051z"/>
	<path fill="#D5D3D2" d="M117.588,203.261c0.001,4.802,3.909,8.702,8.732,8.703c4.81-0.007,8.702-3.909,8.702-8.718
		c-0.007-4.817-3.908-8.716-8.71-8.715C121.488,194.537,117.584,198.43,117.588,203.261z"/>
</g>
</svg>
