<?xml version="1.0" encoding="utf-8"?>
<!-- Generator: Adobe Illustrator 17.0.0, SVG Export Plug-In . SVG Version: 6.00 Build 0)  -->
<!DOCTYPE svg PUBLIC "-//W3C//DTD SVG 1.1//EN" "http://www.w3.org/Graphics/SVG/1.1/DTD/svg11.dtd">
<svg version="1.1" id="Layer_1" xmlns="http://www.w3.org/2000/svg" xmlns:xlink="http://www.w3.org/1999/xlink" x="0px" y="0px"
	 width="300px" height="300px" viewBox="0 0 300 300" enable-background="new 0 0 300 300" xml:space="preserve">
<path fill="#D5D3D2" d="M150.891,201.65c25.628-0.017,54.698-0.551,75.407-6.709c23.66-7.039,35.651-21.222,35.636-42.16
	c-0.024-37.13-38.301-68.841-91.006-75.404c-6.59-0.821-13.364-1.234-20.12-1.229c-29.14,0.017-56.63,7.686-77.409,21.593
	c-21.701,14.518-33.64,34.116-33.626,55.181c0.024,35.198,32.752,43.349,57.369,46.414
	C113.648,201.391,132.725,201.658,150.891,201.65z M54.584,152.911c-0.008-15.959,9.594-31.18,27.05-42.863
	c5.162-3.454,10.856-6.426,16.9-8.981c10.726,9.452,16.369,21.846,16.651,36.965c0.064,3.731,2.881,6.762,6.478,7.21
	c0.347,0.043,0.704,0.066,1.057,0.061c4.092-0.076,7.348-3.457,7.272-7.543c-0.355-19.183-7.625-32.774-15.846-42.069
	c3.932-1.055,7.985-1.89,12.114-2.596c10.852,5.498,27.74,18.305,28.241,44.91c0.064,3.731,2.882,6.762,6.478,7.21
	c0.347,0.043,0.704,0.066,1.064,0.062c4.085-0.077,7.341-3.458,7.265-7.544c-0.423-22.484-10.267-37.32-20.408-46.713
	c0.643-0.012,1.27-0.061,1.919-0.064c3.78-0.002,7.549,0.192,11.294,0.476c7.689,3.207,31.137,15.548,31.725,46.557
	c0.072,3.725,2.882,6.755,6.479,7.203c0.347,0.043,0.704,0.067,1.064,0.062c4.086-0.084,7.341-3.458,7.265-7.544
	c-0.335-17.643-6.423-30.593-13.964-39.91c31.456,10.376,52.428,31.385,52.443,54.99c0.012,14.175-7.712,22.804-25.052,27.957
	c-18.798,5.592-46.607,6.079-71.191,6.092c-17.687,0.012-36.208-0.25-51.908-2.205C59.871,179.767,54.592,165.866,54.584,152.911z"
	/>
<path fill="#D5D3D2" d="M232.903,216.932c0.002-4.09-3.379-7.409-7.406-7.403l-149.205,0.094c-4.091,0.005-7.402,3.323-7.404,7.413
	c0.003,3.773,2.831,6.882,6.483,7.337c0.306,0.038,0.613,0.062,0.931,0.059l149.205-0.094
	C229.598,224.341,232.909,221.023,232.903,216.932z"/>
</svg>
