<?xml version="1.0" encoding="utf-8"?>
<!-- Generator: Adobe Illustrator 17.0.0, SVG Export Plug-In . SVG Version: 6.00 Build 0)  -->
<!DOCTYPE svg PUBLIC "-//W3C//DTD SVG 1.1//EN" "http://www.w3.org/Graphics/SVG/1.1/DTD/svg11.dtd">
<svg version="1.1" id="Layer_1" xmlns="http://www.w3.org/2000/svg" xmlns:xlink="http://www.w3.org/1999/xlink" x="0px" y="0px"
	 width="300px" height="300px" viewBox="0 0 300 300" enable-background="new 0 0 300 300" xml:space="preserve">
<g>
	<path fill="#D5D3D2" d="M110.615,234.926c5.513-6.33,6.444-15.388,6.49-20.46l15.306-15.321c2.885-2.898,2.884-7.588-0.008-10.473
		c-2.885-2.884-7.58-2.89-10.473,0.008l-17.57,17.592c-1.562,1.554-2.341,3.735-2.135,5.933c0.262,2.769-0.067,9.885-2.775,12.996
		c-0.642,0.738-1.59,1.501-3.731,1.594c-3.241,0.147-5.406-7.443-5.765-10.047c-0.032-0.251-0.116-0.48-0.171-0.719
		c-0.033-0.131-0.053-0.254-0.087-0.378c-0.104-0.358-0.244-0.7-0.4-1.037c-0.038-0.09-0.076-0.186-0.122-0.269
		c-0.175-0.346-0.376-0.66-0.599-0.963c-0.061-0.078-0.107-0.161-0.169-0.233c-0.232-0.29-0.48-0.561-0.752-0.813
		c-0.083-0.074-0.157-0.154-0.247-0.228c-0.261-0.23-0.546-0.428-0.84-0.619c-0.111-0.07-0.228-0.148-0.347-0.213
		c-0.29-0.163-0.59-0.299-0.9-0.422c-0.148-0.061-0.288-0.12-0.437-0.167c-0.298-0.1-0.607-0.167-0.917-0.227
		c-0.124-0.023-0.245-0.073-0.377-0.089c-2.627-0.363-10.211-2.491-10.07-5.774c0.088-2.119,0.84-3.061,1.568-3.697
		c3.073-2.706,10.105-3.057,13.007-2.809c2.196,0.203,4.367-0.577,5.929-2.139l17.571-17.592c2.885-2.898,2.884-7.588-0.008-10.473
		c-2.885-2.884-7.58-2.89-10.473,0.008l-15.306,15.321c-5.07,0.053-14.129,0.998-20.45,6.515c-4.099,3.586-6.398,8.511-6.639,14.243
		c-0.495,11.623,9.272,17.564,17.66,19.969c2.191,7.606,7.281,16.336,16.864,17.529c0.993,0.124,2.031,0.168,3.123,0.121
		C102.108,241.341,107.035,239.035,110.615,234.926z"/>
	<path fill="#D5D3D2" d="M170.112,59.131c-17.806,3.064-33.964,15.656-42.164,32.857c-11.395,23.897-18.655,67.362-5.053,83.279
		c0.19,0.285,0.42,0.539,0.649,0.793c0.105,0.119,0.193,0.264,0.299,0.376c0.006,0.008,0.013,0.008,0.019,0.016
		c0.013,0.008,0.019,0.016,0.031,0.032c4.255,4.168,10.878,6.531,18.746,7.51c20.055,2.497,48.175-4.001,65.645-12.579
		c17.102-8.399,29.506-24.702,32.369-42.546c2.884-17.954-3.941-36.081-19.212-51.056c-0.007-0.001-0.007-0.001-0.006-0.008
		c-0.019-0.016-0.031-0.032-0.05-0.049c-0.006-0.008-0.013-0.008-0.019-0.016C206.223,62.647,188.033,56.046,170.112,59.131z
		 M210.977,88.287c0.006,0.008,0.012,0.016,0.025,0.024c0.006,0.008,0.018,0.024,0.024,0.031
		c11.949,11.692,17.138,24.897,15.004,38.185c-2.113,13.17-11.419,25.276-24.278,31.594c-24.238,11.903-60.296,14.754-67.469,7.804
		c-7.029-7.095-4.594-43.186,7.031-67.561c6.166-12.934,18.165-22.37,31.317-24.639C185.897,71.442,199.148,76.483,210.977,88.287z"
		/>
</g>
</svg>
