<?xml version="1.0" encoding="utf-8"?>
<!-- Generator: Adobe Illustrator 17.0.0, SVG Export Plug-In . SVG Version: 6.00 Build 0)  -->
<!DOCTYPE svg PUBLIC "-//W3C//DTD SVG 1.1//EN" "http://www.w3.org/Graphics/SVG/1.1/DTD/svg11.dtd">
<svg version="1.1" id="Layer_1" xmlns="http://www.w3.org/2000/svg" xmlns:xlink="http://www.w3.org/1999/xlink" x="0px" y="0px"
	 width="300px" height="300px" viewBox="0 0 300 300" enable-background="new 0 0 300 300" xml:space="preserve">
<g>
	<path fill="#D5D3D2" d="M167.207,104.71l2.147-2.349c2.785-2.996,2.613-7.678-0.375-10.462c-3.003-2.785-7.685-2.614-10.47,0.382
		l-2.252,2.456c-8.004,8.784-17.97,19.728-45.131,29.956C80.08,136.39,61.518,157.187,60.193,181.76
		c-1.203,22.289,12.151,43.823,34.011,54.873c7.158,3.62,14.758,5.899,22.618,6.878c23.145,2.882,48.513-5.524,71.361-24.335
		c28.16-23.184,38.701-61.566,39.173-87.387c0.072-4.088-3.281-7.46-7.27-7.534c-4.095-0.073-7.469,3.181-7.541,7.269
		c-0.411,22.67-9.505,56.231-33.777,76.219c-26.329,21.67-54.717,27.373-77.884,15.674c-16.618-8.402-26.785-24.441-25.904-40.86
		c1.011-18.709,15.699-34.333,41.365-44C146.843,127.067,158.613,114.148,167.207,104.71z"/>
	<path fill="#D5D3D2" d="M203.212,69.662c-8.017-0.06-27.684-0.344-38.642-0.517c-3.266-0.047-6.17,2.038-7.17,5.144
		c-0.993,3.106,0.164,6.501,2.845,8.351l20.135,13.917l-0.475,21.138c-0.06,2.743,1.4,5.294,3.793,6.635
		c0.851,0.473,1.767,0.763,2.697,0.879c1.701,0.212,3.455-0.169,4.943-1.133l16.262-10.535l20.017,9.022
		c2.763,1.254,6.001,0.684,8.188-1.42c2.18-2.105,2.856-5.328,1.71-8.129c-0.838-2.044-8.297-20.178-13.029-27.312
		c-2.263-3.406-6.85-4.337-10.262-2.082c-3.406,2.263-4.337,6.857-2.082,10.262c1.075,1.622,2.455,4.24,3.903,7.22l-6.036-2.719
		c-2.311-1.035-4.959-0.836-7.069,0.537l-7.915,5.121l0.253-11.145c0.056-2.489-1.145-4.846-3.191-6.258l-3.377-2.331
		c8.399,0.108,16.166,0.201,17.968,0.171c0.19,0.002,0.372-0.045,0.558-0.064c0.185-0.012,0.371-0.031,0.558-0.065
		c0.483-0.081,0.95-0.206,1.393-0.369c0.089-0.038,0.183-0.055,0.273-0.093c0.543-0.228,1.038-0.52,1.504-0.863
		c0.117-0.091,0.222-0.198,0.34-0.296c0.362-0.3,0.692-0.633,0.984-0.998c0.066-0.076,0.15-0.129,0.21-0.214
		c0.084-0.109,8.555-10.993,19.83-10.767c4.094,0.079,7.475-3.174,7.554-7.261c0.08-4.094-3.199-7.493-7.261-7.547
		C218.41,55.66,207.84,64.773,203.212,69.662z"/>
	<path fill="#D5D3D2" d="M120.335,160.196c3.929-1.147,6.184-5.259,5.036-9.182c-1.147-3.923-5.267-6.177-9.189-5.03
		c-9.513,2.779-27.156,11.836-32.936,28.125c-2.555,7.213-3.616,18.674,5.826,32.331c1.249,1.805,3.16,2.883,5.18,3.134
		c1.736,0.216,3.562-0.177,5.12-1.253c3.365-2.331,4.207-6.944,1.883-10.308c-4.793-6.922-6.115-13.123-4.049-18.958
		C100.716,169.155,112.966,162.352,120.335,160.196z"/>
</g>
</svg>
