<?xml version="1.0" encoding="utf-8"?>
<!-- Generator: Adobe Illustrator 17.0.0, SVG Export Plug-In . SVG Version: 6.00 Build 0)  -->
<!DOCTYPE svg PUBLIC "-//W3C//DTD SVG 1.1//EN" "http://www.w3.org/Graphics/SVG/1.1/DTD/svg11.dtd">
<svg version="1.1" id="Layer_1" xmlns="http://www.w3.org/2000/svg" xmlns:xlink="http://www.w3.org/1999/xlink" x="0px" y="0px"
	 width="960px" height="560px" viewBox="0 0 960 560" enable-background="new 0 0 960 560" xml:space="preserve">
<g>
	<path fill="#FFFFFF" d="M535.751,132.907c-4.48-2.489-9.458-4.978-15.431-7.964c-2.987-1.493-5.476-2.987-8.462-4.48l-1.991-0.498
		c-6.471-2.987-8.462-4.48-8.96-9.458c7.964-7.467,13.44-19.911,13.44-33.351c0-2.489,0-4.48-0.498-6.969
		c2.489-2.987,3.982-6.471,3.982-10.951c0-5.476-2.489-9.956-6.471-12.942V42.81c0-16.924-13.44-30.364-29.867-30.364
		s-29.867,13.44-29.867,30.364c-8.462,0.498-14.933,7.964-14.933,16.427c0,6.969,3.982,12.942,9.956,15.431v2.489
		c0,14.933,6.471,27.876,15.431,35.342c-0.498,3.982-2.987,6.471-8.96,7.467c-7.964,1.991-25.387,11.449-35.342,24.391l-3.982-4.48
		c-1.493-1.991-4.48-1.991-6.471-0.996c-0.498,0-0.996,0.498-1.493,0.996l-6.471,7.467c-1.493,2.489-2.987,5.476-2.987,8.462
		c0,4.48,2.987,9.956,6.969,13.938c-4.978,10.453-17.92,41.316-9.458,54.258c2.489,3.982,6.471,5.973,11.449,5.476
		c14.933-0.498,24.889-12.942,31.858-26.88l-6.969,122.453c0,1.493,0.498,2.987,1.493,3.982c0.996,0.996,1.991,1.493,3.484,1.493
		c0,0,0,0,0.498,0l14.933-0.995l3.484,13.938c0,4.48,0.996,16.924,1.991,35.342c0.498,8.462,1.493,17.92,1.493,19.413
		c-0.498,4.978-15.431,20.907-20.409,22.898c-3.982,1.493-4.48,4.48-4.48,5.476c0,1.991,0.996,3.982,3.982,4.978
		c0.996,0.498,3.484,0.498,5.973,0.498c7.467,0,19.911-1.991,26.382-8.462c0.996,0.996,1.493,2.489,1.991,3.982
		c0.996,1.991,2.987,3.484,5.476,2.987c2.489-0.498,3.982-1.991,4.48-4.48c0-0.996,1.493-10.453,2.489-22.4
		c1.493,11.947,2.489,21.404,2.987,22.4c0.498,2.489,1.991,3.982,4.48,4.48c2.489,0.498,4.48-0.996,5.476-2.987
		c0.498-1.493,1.493-2.987,1.991-3.982c6.969,6.471,18.916,8.462,26.382,8.462c2.489,0,4.978,0,5.973-0.498
		c2.987-0.996,3.982-2.987,3.982-4.978c0-0.996-0.498-3.982-4.48-5.476c-4.978-1.493-19.911-17.92-20.409-22.898
		c0-1.493,0.498-10.951,1.493-19.413c1.493-17.92,2.489-30.364,1.991-34.844l3.982-17.422l11.947-0.498c0.498,0,0.498,0,0.996,0
		s0.996,0,0.996-0.498c0.498,0,0.498-0.498,0.498-0.498l1.493-15.929l-3.484-63.218c22.898-18.418,27.876-41.316,28.871-54.756
		C560.142,164.267,547.698,140.373,535.751,132.907z M480.996,21.404l21.902,24.391c0,0-10.951-7.964-21.902-7.964
		s-21.902,7.964-21.902,7.964L480.996,21.404z M457.6,77.156v-1.493c3.982-0.996,7.467-3.484,9.956-6.969
		c4.48,2.489,9.458,3.982,14.933,3.982c2.987,0,5.973-0.498,8.462-1.493c2.987,2.489,6.471,4.48,10.951,4.48
		c0.996,0,1.991,0,2.489-0.498v1.493c0,17.422-10.453,31.858-23.396,31.858C468.053,108.516,457.6,94.578,457.6,77.156z
		 M411.307,149.831l11.449,13.44c-1.493,1.991-2.987,3.484-4.48,3.484c-3.484,0-10.951-7.467-10.951-11.449
		C407.324,153.813,408.818,151.324,411.307,149.831z M472.533,413.156c-0.498,0-0.996-0.498-0.996-0.498
		c-2.489-0.498-4.978-0.498-6.969,0.996c-0.498,0.498-0.996,0.996-1.493,1.493c-1.991,2.489-5.973,4.48-9.956,5.476
		c6.969-6.969,13.938-15.929,13.938-21.902c0-1.493-0.498-7.467-1.493-20.907c-0.996-11.947-2.489-31.36-1.991-34.347v-1.493
		l-2.987-12.942l17.422-0.996c0,5.973,0.498,16.924,0.498,25.884C478.507,362.382,474.524,395.236,472.533,413.156z
		 M513.849,420.124c-4.48-0.996-8.462-2.987-9.956-5.476c-0.498-0.498-0.996-0.996-1.493-1.493c-1.991-1.493-4.48-1.991-6.969-0.996
		c0,0.498-0.498,0.996-0.498,0.996c-2.987-21.902-6.471-51.769-6.471-59.236c0-9.458,0-20.409-0.498-26.382l19.413-0.996
		l-3.484,15.431v1.493c0,2.489-1.493,22.4-2.489,33.849c-0.996,13.44-1.493,19.413-1.493,20.907
		C500.409,404.196,506.88,413.156,513.849,420.124z M548.196,190.649c-0.996,17.92-8.96,41.813-40.818,57.742l-6.471-8.96
		c12.942-7.964,42.809-32.356,22.898-78.151c-0.996-1.991-3.484-3.484-5.476-2.987c-2.489,0.498-3.982,2.489-3.982,4.978
		l1.991,43.307c0,0.498,0,0.996,0.498,1.493c-7.467,16.427-23.893,23.893-24.889,24.391c-1.493,0.498-2.489,1.991-2.987,2.987v0.498
		c-2.987,0-5.973,0-8.96,0.996l-8.96,6.471c-1.493,1.493-2.489,2.489-2.489,2.987c-0.996,1.493-0.996,3.982,0,5.476l12.942,19.911
		c0.996,1.493,2.489,2.489,3.982,2.489h1.493c0.498,0,2.987-0.996,5.973-2.489l7.467-6.969c1.493-1.991,2.987-3.484,3.484-5.476
		c0.498,0,0.996,0.498,1.991,0.498c0.498,0,1.493,0,1.991-0.498c4.48-1.991,8.462-4.48,11.947-6.471l2.987,41.813l1.493,18.916
		v2.987l-83.627,4.48l9.458-158.791c0-2.489-1.991-4.978-4.48-5.476s-4.978,1.493-5.476,3.982
		c-0.498,3.982-3.053,12.218-4.178,19.093c-7,28.75-18.222,39.147-30.667,39.645c-1.991,0-2.489-0.498-2.987-0.996
		c-3.484-5.476,0.996-23.893,9.458-43.307c1.991,0.996,3.982,1.493,5.973,1.493c0.498,0,0.996,0,0.996,0
		c-0.996,7.467-2.489,18.916-5.973,23.893c-1.493,2.489-0.996,5.476,1.493,6.969c0.996,0.498,1.991,0.996,2.489,0.996
		c1.493,0,3.484-0.996,3.982-2.489c3.484-4.978,4.978-13.44,6.471-20.907l1.264-7.923l1.224-9.001
		c1.991-2.489,3.484-4.978,3.484-5.476c0.996-1.991,0.498-3.982-0.996-5.476l-6.471-7.467c7.964-8.462,23.893-17.92,30.862-19.911
		c3.484-0.996,12.444-2.987,15.431-12.444c2.987,0.996,5.973,1.493,8.96,1.493c3.982,0,7.467-0.996,10.951-2.489
		c2.489,6.471,7.964,9.458,13.44,12.444l1.493,0.498c2.987,1.493,5.973,2.987,8.96,4.48c5.973,2.987,10.453,5.476,14.436,7.467
		C538.24,146.347,549.689,166.258,548.196,190.649z M491.947,259.342c-1.493,1.493-3.484,2.489-4.48,3.484l-8.462-12.942
		c0.996-0.498,2.489-1.493,3.982-1.991c5.476-1.493,10.951-0.498,12.444,2.987C496.427,253.369,494.933,256.356,491.947,259.342z"/>
</g>
</svg>
