<?xml version="1.0" encoding="utf-8"?>
<!-- Generator: Adobe Illustrator 17.0.0, SVG Export Plug-In . SVG Version: 6.00 Build 0)  -->
<!DOCTYPE svg PUBLIC "-//W3C//DTD SVG 1.1//EN" "http://www.w3.org/Graphics/SVG/1.1/DTD/svg11.dtd">
<svg version="1.1" id="Layer_1" xmlns="http://www.w3.org/2000/svg" xmlns:xlink="http://www.w3.org/1999/xlink" x="0px" y="0px"
	 width="300.974px" height="305.281px" viewBox="0 0 300.974 305.281" enable-background="new 0 0 300.974 305.281"
	 xml:space="preserve">
<g>
	<path fill="#454545" d="M99.374,305.281c-1.152,0-2.304,0-3.456,0c-1.234-0.797-2.828-1.334-3.632-2.443
		c-1.939-2.674-3.79-5.486-5.175-8.474c-4.025-8.685-7.846-17.466-11.668-26.243c-3.82-8.773-7.688-17.529-11.277-26.397
		c-4.591-11.347-9.112-22.738-12.114-34.639c-1.069-4.239-2.283-8.552-2.485-12.876c-0.409-8.749,0.251-17.547-1.27-26.246
		c-0.464-2.655-0.976-5.302-1.494-8.107c-1.188,2.05-2.071,3.933-3.284,5.57c-1.255,1.694-2.698,3.306-4.293,4.681
		c-3.958,3.411-9.956,5.301-14.774,1.258c-4.661-3.911-9.032-8.169-13.483-12.326c-0.749-0.7-1.257-1.658-2.01-2.677
		c5.175-2.192,10.183-4.312,15.19-6.433c-0.442-0.449-0.79-0.554-1.126-0.522c-2.374,0.231-4.744,0.683-7.118,0.698
		c-4.6,0.029-8.289-2.175-10.92-5.741c-1.892-2.564-3.145-5.6-4.683-8.426c0-0.256,0-0.512,0-0.768
		c9.789-1.345,19.578-2.691,29.597-4.068c-1.204-3.746-2.202-7.504-3.621-11.096c-1.765-4.471-4.126-8.579-8.219-11.49
		c-2.688-1.912-3.413-6.2-1.567-9.113c1.506-2.378,3.384-4.52,5.052-6.799c1.333-1.821,2.847-2.242,5.03-1.362
		c5.858,2.362,10.949,0.476,14.77-3.987c4.437-5.181,8.22-10.918,12.377-16.344c3.823-4.991,7.701-9.945,11.701-14.794
		c1.072-1.3,1.919-2.453,1.714-4.201c-0.103-0.883-0.018-1.789-0.018-2.684c0-2.509,1.014-4.461,3.127-5.858
		c1.373-0.908,2.696-1.893,4.128-2.903c-3.979-1.037-6.875-3.296-9.221-6.432c-3.621-4.841-4.094-10.525-4.544-16.227
		c-0.064-0.807-0.004-1.661,0.195-2.444c0.747-2.945,3.848-4.543,7.407-4.552c3.921-0.01,7.843,0.631,11.767,0.659
		c4.346,0.031,8.174-1.808,11.607-4.313c3.082-2.248,5.97-4.763,8.943-7.159c0.768,0,1.536,0,2.304,0
		c0.256,0.448,0.668,0.872,0.737,1.347c0.21,1.433,0.215,2.896,0.432,4.327c0.454,2.989,1.664,5.657,4.501,6.993
		c1.75,0.824,3.788,1.038,5.79,1.55c-0.033-0.121,0.016-0.045-0.004,0c-0.175,0.402-0.352,0.803-0.548,1.195
		c-2.231,4.478-1.465,8.573,1.421,12.507c1.431,1.951,2.786,4,3.854,6.163c0.85,1.721-0.196,3.466-2.037,3.898
		c-1.032,0.242-2.106,0.333-3.167,0.413c-3.218,0.242-4.561,1.131-4.787,3.643c-0.202,2.24,0.708,4.353,2.336,5.753
		c3.185,2.741,6.585,5.24,9.98,7.726c3.282,2.404,6.741,4.572,9.977,7.033c1.448,1.101,1.509,3.26,0.501,4.632
		c-0.893,1.216-1.893,2.354-2.769,3.58c-1.668,2.335-3.271,4.75-2.829,7.814c0.593,4.109,3.944,5.549,7.149,7.048
		c2.993,1.399,6.299,2.317,8.983,4.154c6.354,4.346,13.495,6.26,20.884,7.286c4.707,0.654,8.972,1.618,12.725,4.861
		c2.25,1.944,5.114,3.477,7.962,4.356c3.613,1.115,7.505,1.297,11.246,2.036c3.443,0.68,6.753,0.19,10.035-0.767
		c2.213-0.645,2.517-1.231,1.919-3.418c-0.361-1.322-0.861-2.607-1.203-3.933c-1.419-5.497-0.713-8.87,5.317-10.229
		c2.249-0.507,2.887-0.035,2.969,2.221c0.057,1.575,0.074,3.184,0.415,4.709c0.663,2.968,1.94,5.187,5.263,5.614
		c3.996,0.513,8.02,0.808,12.035,1.159c1.703,0.149,3.414,0.262,5.123,0.282c3.705,0.042,7.411,0.013,11.534,0.013
		c-1.979-2.866-3.609-5.225-5.283-7.649c7.45-5.033,14.969-9.789,22.107-15.062c4.074-3.01,8.379-4.482,13.299-4.873
		c3.873-0.308,7.722-0.928,11.793-1.436c0.399,1.122,0.811,2.348,1.271,3.557c0.937,2.467,1.495,5.047,4.615,6.09
		c1.714,0.573,3.077,2.195,4.598,3.344c0,1.536,0,3.072,0,4.608c-0.772,2.276-1.583,4.539-2.297,6.832
		c-0.325,1.043-0.922,1.481-1.943,1.194c-3.211-0.901-6.016,0.047-8.763,1.68c-4.737,2.816-7.319,7.392-9.658,12.039
		c-3.069,6.098-5.262,12.552-6.549,19.288c-0.605,3.165-1.872,4.139-5.166,4.295c-1.559,0.074-3.108,0.335-4.696,0.514
		c-0.422,3.945-0.714,7.842-1.291,11.696c-0.437,2.921-0.333,6.015-2.593,8.471c-1.366,1.484-3.051,1.742-3.853-0.065
		c-1.589-3.578-2.952-7.265-4.223-10.97c-0.707-2.061-1.041-4.25-1.608-6.659c-1.82,2.666-3.422,5.012-5.146,7.538
		c-2.41-2.777-4.627-5.331-6.852-7.895c8.046-6.205,13.335-12.296,13.836-15.693c-2.681,0-5.445-0.351-8.077,0.087
		c-3.477,0.579-6.825,0.178-10.128-0.544c-6.338-1.385-9.377-6.126-7.92-11.916c-2.899,0.133-5.683,0.172-8.454-1.258
		c-3.332-1.72-3.689-1.42-5.788,1.701c-0.139,0.206-0.174,0.508-0.348,0.66c-1.039,0.905-0.566,1.569,0.217,2.355
		c2.1,2.107,4.133,4.28,6.378,6.619c-2.975,2.373-5.742,4.582-8.828,7.044c0.786,0.617,1.296,1.124,1.898,1.47
		c2,1.151,3.151,2.765,3.286,5.14c0.078,1.367,0.412,2.724,0.675,4.077c1.397,7.182,2.809,14.36,4.243,21.682
		c-3.05,0.304-6.013,0.428-8.91,0.933c-3.371,0.587-6.74,1.331-9.997,2.365c-1.465,0.465-2.8,1.568-3.079,3.508
		c-0.365,2.53-0.799,5.085-1.57,7.514c-1.03,3.245-2.599,6.246-6.519,6.734c-1.336,0.166-2.741-0.208-4.074-0.032
		c-3.693,0.49-5.679,3.502-7.826,5.965c-4.276,4.905-9.11,9.136-14.232,13.085c-3.832,2.955-7.776,5.781-10.043,10.283
		c-0.928,1.843-1.902,3.691-3.094,5.366c-2.067,2.906-5.531,3.256-8.59,4.291c-2.836,0.959-5.772,1.655-8.545,2.764
		c-3.771,1.508-4.343,5.176-4.495,8.485c-0.317,6.904-0.278,13.833,0.99,20.695c0.329,1.782,0.312,3.554-0.48,5.439
		c-1.566,3.729-2.803,7.62-3.878,11.525c-0.691,2.511-1.344,5.21-1.12,7.747c0.246,2.798,0.278,5.14-2.158,6.939
		c-0.709,0.524-1.353,1.142-2.089,1.622c-3.125,2.038-5.507,4.739-7.432,7.919C107.53,299.458,104.543,303.538,99.374,305.281z"/>
</g>
<g>
	<path fill="#D5D3D2" d="M91.563,160.931v-20.135h1.405v20.135H91.563z"/>
	<path fill="#D5D3D2" d="M108.765,160.931v-9.709c0-1.506-0.316-2.601-0.95-3.285c-0.633-0.684-1.616-1.026-2.947-1.026
		c-1.791,0-3.101,0.452-3.932,1.356s-1.246,2.371-1.246,4.4v8.263h-1.364v-14.971h1.157l0.262,2.052h0.083
		c0.973-1.561,2.704-2.341,5.192-2.341c3.397,0,5.096,1.823,5.096,5.468v9.792H108.765z"/>
	<path fill="#D5D3D2" d="M120.444,145.672c1.083,0,2.02,0.198,2.81,0.592c0.79,0.395,1.497,1.07,2.121,2.024h0.083
		c-0.055-1.157-0.083-2.291-0.083-3.402v-5.385h1.35v21.43h-0.895l-0.344-2.286h-0.11c-1.139,1.708-2.773,2.562-4.903,2.562
		c-2.066,0-3.646-0.643-4.738-1.928c-1.093-1.286-1.639-3.159-1.639-5.62c0-2.588,0.542-4.567,1.625-5.935
		C116.803,146.356,118.378,145.672,120.444,145.672z M120.444,146.911c-1.634,0-2.862,0.574-3.684,1.721
		c-0.822,1.148-1.232,2.814-1.232,4.999c0,4.242,1.648,6.363,4.944,6.363c1.689,0,2.929-0.491,3.718-1.474s1.185-2.604,1.185-4.862
		v-0.233c0-2.314-0.388-3.978-1.164-4.993C123.435,147.419,122.179,146.911,120.444,146.911z"/>
	<path fill="#D5D3D2" d="M131.559,141.801c0-0.881,0.289-1.322,0.868-1.322c0.284,0,0.507,0.115,0.668,0.345
		c0.16,0.229,0.241,0.555,0.241,0.978c0,0.413-0.081,0.739-0.241,0.978c-0.161,0.239-0.384,0.358-0.668,0.358
		C131.848,143.137,131.559,142.692,131.559,141.801z M133.115,160.931h-1.364v-14.971h1.364V160.931z"/>
	<path fill="#D5D3D2" d="M147.217,160.931l-0.344-2.369h-0.11c-0.753,0.965-1.526,1.646-2.32,2.046
		c-0.794,0.399-1.733,0.599-2.816,0.599c-1.469,0-2.612-0.376-3.43-1.129c-0.817-0.753-1.226-1.795-1.226-3.127
		c0-1.46,0.608-2.594,1.825-3.401c1.217-0.808,2.977-1.235,5.282-1.281l2.851-0.083v-0.991c0-1.423-0.289-2.498-0.868-3.223
		c-0.579-0.725-1.51-1.088-2.796-1.088c-1.386,0-2.823,0.386-4.311,1.157l-0.51-1.184c1.644-0.771,3.269-1.157,4.875-1.157
		c1.644,0,2.872,0.427,3.684,1.281c0.812,0.854,1.219,2.185,1.219,3.994v9.958H147.217z M141.708,159.968
		c1.598,0,2.858-0.457,3.78-1.37c0.923-0.914,1.384-2.184,1.384-3.809v-1.474l-2.617,0.11c-2.103,0.101-3.602,0.429-4.497,0.984
		c-0.896,0.556-1.343,1.421-1.343,2.597c0,0.937,0.287,1.664,0.861,2.183C139.852,159.708,140.662,159.968,141.708,159.968z"/>
</g>
</svg>
