<?xml version="1.0" encoding="utf-8"?>
<!-- Generator: Adobe Illustrator 17.0.0, SVG Export Plug-In . SVG Version: 6.00 Build 0)  -->
<!DOCTYPE svg PUBLIC "-//W3C//DTD SVG 1.1//EN" "http://www.w3.org/Graphics/SVG/1.1/DTD/svg11.dtd">
<svg version="1.1" id="Layer_1" xmlns="http://www.w3.org/2000/svg" xmlns:xlink="http://www.w3.org/1999/xlink" x="0px" y="0px"
	 width="960px" height="560px" viewBox="0 0 960 560" enable-background="new 0 0 960 560" xml:space="preserve">
<g>
	<path fill="#FFFFFF" d="M556.16,425.102c-3.484-4.48-9.956-5.973-15.929-6.969c-4.978-0.996-10.951-1.991-11.947-4.978
		c0-0.498-0.498-0.498-0.498-0.996l-0.498-122.951l-0.498-9.956c4.978-0.498,9.956-2.987,13.938-7.467
		c5.476-6.969,6.471-15.929,2.489-25.387c-2.489-6.969,0-16.427,2.489-24.889c2.489-7.467,4.48-13.44,3.484-23.396h5.476v-87.609
		l-46.791-10.453l-6.969-8.462c0.498,0,0.498-0.498,0.498-0.498c5.973-4.978,11.449-14.933,12.942-24.889
		c5.476-7.467,4.978-18.418,4.978-27.378c0-11.947-9.458-15.929-9.458-15.929c-2.489-11.449-13.938-10.951-19.911-9.458
		s-20.409-6.471-26.88-3.982c-8.462,2.987-6.471,15.431-13.938,20.409c-6.969,4.48-7.467,17.422-3.982,29.867
		c1.493,4.978,3.484,8.462,5.476,10.453c1.991,8.462,6.471,15.929,12.444,21.404c0.498,0.498,0.996,0.498,1.493,0.996
		c-2.489,2.987-5.973,6.471-6.969,7.964l-47.289,9.956v87.609c0,6.969-0.996,14.436,0,22.4c1.493,10.453,2.987,21.404-3.484,32.853
		v0.498c-3.982,9.956-1.493,15.929,1.493,19.413c1.991,1.991,14.93,8.72,28.373,3.484l0,0l-1.493,97.564v39.324
		c-5.973,4.978-8.96,9.956-8.462,15.431c0.498,6.969,6.969,9.458,7.467,9.458h27.876l0.498,0.498c0.996,0,7.467-0.996,9.956-6.969
		c1.991-4.978,0-10.951-5.476-18.418l14.436-111.502l15.431,115.982h-1.991v19.911h58.738l1.493-1.991
		C558.649,429.084,557.653,426.596,556.16,425.102z M536.249,219.52c-2.987,8.96-5.973,19.911-2.489,30.862
		c3.484,7.964,0.996,12.942-1.493,15.929c-1.991,2.489-4.978,2.489-5.973,2.489c-0.996-8.462-0.498-44.8,0-69.689h11.947
		C540.729,209.067,538.738,212.053,536.249,219.52z M544.711,189.156h-18.418l0.498-4.978h17.92L544.711,189.156L544.711,189.156z
		 M459.591,60.231c0-8.462,2.987-16.427,7.964-21.404c7.964-1.991,19.413,0,23.396-4.48c0,0,4.48,8.96,10.951,12.942
		c1.493,3.982,2.489,8.462,2.489,13.44c0,15.929-9.956,28.373-22.4,28.373S459.591,75.662,459.591,60.231z M420.267,118.471
		l41.316-9.458l0.996-0.498c0.996-0.498,0.996-0.498,8.96-10.951c0.498-0.498,0.498-0.996,0.996-1.493
		c5.973,1.493,12.942,1.493,18.418-0.498c0,0.498,0.498,0.996,0.996,1.493l9.956,11.449l42.311,9.458V179.2h-17.92l2.489-42.311
		c0-2.987-1.991-4.48-4.48-4.978c-2.489,0-4.978,1.493-5.476,4.48l-3.982,82.631h-64.711l-4.978-82.133
		c0-2.987-2.489-4.48-5.476-4.48s-4.978,1.493-4.48,4.48l2.489,42.311h-17.422v-60.729H420.267z M420.267,184.178h17.92l0.498,4.978
		h-18.418V184.178z M429.724,268.302c0,0-0.498,0.996-0.996,0.996l0,0c-7.146,4.036-18.729-1.964-12.444-11.449
		c7.964-13.938,5.973-28.871,4.978-39.822c-0.996-6.969-1.493-13.938,0-18.916h11.947C432.711,224,431.218,261.333,429.724,268.302z
		 M462.08,428.089h-23.893c-0.498,0-0.996-1.493-0.996-2.489s1.493-2.489,5.476-7.467h17.422c2.725,6.812,3.352,8.263,3.476,8.501
		C463.521,427.142,462.566,428.089,462.08,428.089z M486.471,263.324c-0.498-0.996-0.498-0.996-0.996-0.996
		c0-0.498-0.498-0.498-0.498-0.498l-0.498-0.498c-0.498,0-0.498-0.498-0.996-0.498c-0.498,0-0.498,0-0.996-0.498c0,0,0,0-0.498,0
		h-0.996c0,0,0,0-0.498,0s-0.498,0-0.996,0.498c-0.498,0-0.498,0.498-0.996,0.498l-0.498,0.498c0,0-0.498,0.498-0.498,0.996
		c0,0-0.498,0.498-0.498,0.996c0,0.498-0.498,0.498-0.498,0.996v-0.996l-19.413,144.356h-11.947l0.498-119.467l3.982-59.733h64.213
		l3.982,59.733l0.498,119.467H505.88L486.471,263.324z M504.889,428.089v-9.956h16.427c3.982,4.978,10.951,6.969,16.924,8.462
		c1.493,0.498,3.484,1.493,4.978,1.493L504.889,428.089L504.889,428.089z"/>
</g>
</svg>
