<?xml version="1.0" encoding="utf-8"?>
<!-- Generator: Adobe Illustrator 17.0.0, SVG Export Plug-In . SVG Version: 6.00 Build 0)  -->
<!DOCTYPE svg PUBLIC "-//W3C//DTD SVG 1.1//EN" "http://www.w3.org/Graphics/SVG/1.1/DTD/svg11.dtd">
<svg version="1.1" id="Layer_1" xmlns="http://www.w3.org/2000/svg" xmlns:xlink="http://www.w3.org/1999/xlink" x="0px" y="0px"
	 width="300px" height="300px" viewBox="0 0 300 300" enable-background="new 0 0 300 300" xml:space="preserve">
<path fill="#D5D3D2" d="M231.457,195.822c-19.33,22.718-57.54,37.416-97.349,37.437c-32.969,0.02-58.763-10.526-72.622-29.697
	c-2.401-3.317-7.033-4.056-10.343-1.662c-3.316,2.394-4.055,7.026-1.661,10.335c13.805,19.102,36.695,31.105,65.555,34.698
	c6.104,0.76,12.474,1.137,19.082,1.135c43.964-0.026,86.596-16.768,108.618-42.649c2.652-3.118,2.275-7.791-0.844-10.436
	C238.782,192.327,234.101,192.71,231.457,195.822z"/>
<path fill="#D5D3D2" d="M79.111,207.668c0.274,0.232,0.549,0.463,0.864,0.651c0.486,0.293,0.986,0.518,1.494,0.687
	c10.674,6.075,23.04,10.238,36.789,11.95c1.902,0.237,3.866,0.382,5.829,0.535c0,0,0,0,0.007,0.001c0,0,0,0,0.007,0.001
	c3.284,0.247,6.605,0.414,9.99,0.412c43.688-0.025,102.789-31.231,119.311-63.001c8.223-15.808,4.13-27.446-0.756-34.422
	c-3.921-5.601-8.567-8.669-14.226-9.373c-3.736-0.465-7.332,0.152-11.136,0.8c-4.496,0.773-9.604,1.639-16.09,0.831
	c-0.007-0.001-0.007-0.001-0.007-0.001c-6.791-0.846-14.172-3.415-22.214-7.745c-0.078-0.052-0.141-0.116-0.219-0.168
	c-0.144-0.088-0.3-0.136-0.446-0.211c-9.657-5.299-20.253-13.135-31.909-23.556c-0.032-0.025-0.063-0.057-0.096-0.082
	c-4.314-3.866-8.757-8.051-13.37-12.623c-6.865-6.82-14.285-11.623-22.133-14.462c-0.033-0.018-0.074-0.03-0.108-0.042
	c-3.476-1.251-7.031-2.152-10.669-2.605c-14.562-1.813-29.365,3.184-41.678,14.061c-17.543,15.508-28.009,41.164-27.989,68.64
	c0.006,12.524,2.641,24.149,7.374,34.562c0.122,0.326,0.258,0.646,0.424,0.955C54.786,187.539,65.388,199.288,79.111,207.668z
	 M233.155,129.974c1.356-0.184,2.545-0.276,3.434-0.165c0.701,0.087,1.868,0.233,3.921,3.168c3.743,5.339,3.663,11.584-0.248,19.093
	c-6.778,13.034-23.256,26.439-42.72,36.758L233.155,129.974z M187.718,124.844c7.605,3.542,14.806,5.743,21.639,6.594
	c0,0,0,0,0.007,0.001c1.889,0.235,3.654,0.328,5.369,0.373l-40.798,67.419c-12.3,4.378-24.739,7.208-35.943,7.759L187.718,124.844z
	 M174.721,117.712l-53.651,88.637c-0.326-0.041-0.663-0.054-0.983-0.094c-9.486-1.181-18.133-3.654-25.843-7.202l18.263-30.178
	c6.257-0.187,12.104-2.689,16.536-7.129c4.608-4.609,7.141-10.739,7.126-17.249c0-3.794-0.899-7.39-2.472-10.617l19.425-32.092
	C160.659,108.098,167.846,113.407,174.721,117.712z M104.997,137.737c1.812-1.812,4.214-2.811,6.775-2.816
	c0.409,0.001,0.815,0.024,1.211,0.073c4.778,0.595,8.38,4.682,8.377,9.519c0.007,2.553-0.984,4.962-2.796,6.767
	c-1.805,1.813-4.215,2.818-6.775,2.816c-5.332,0.013-9.583-4.36-9.587-9.593C102.195,141.944,103.192,139.543,104.997,137.737z
	 M121.213,74.274c3.887,2.134,7.657,4.987,11.285,8.584c3.176,3.153,6.283,6.121,9.35,8.956l-18.804,31.069
	c-3.364-1.752-7.186-2.771-11.276-2.772c-6.523,0.006-12.644,2.551-17.251,7.153c-4.608,4.616-7.135,10.747-7.128,17.257
	c0.009,8.195,4.115,15.54,10.452,19.981L81.479,191.54c-7.755-5.733-13.972-12.889-18.419-21.178L121.213,74.274z M55.165,137.942
	c-0.012-23.293,8.576-44.804,22.982-57.536c8.613-7.615,18.648-11.295,28.437-10.57l-49.96,82.553
	C55.696,147.775,55.168,142.956,55.165,137.942z"/>
</svg>
