<?xml version="1.0" encoding="utf-8"?>
<!-- Generator: Adobe Illustrator 17.0.0, SVG Export Plug-In . SVG Version: 6.00 Build 0)  -->
<!DOCTYPE svg PUBLIC "-//W3C//DTD SVG 1.1//EN" "http://www.w3.org/Graphics/SVG/1.1/DTD/svg11.dtd">
<svg version="1.1" id="Layer_1" xmlns="http://www.w3.org/2000/svg" xmlns:xlink="http://www.w3.org/1999/xlink" x="0px" y="0px"
	 width="300px" height="300px" viewBox="0 0 300 300" enable-background="new 0 0 300 300" xml:space="preserve">
<path fill="#D5D3D2" d="M219.002,93.904l-19.539-30.736c-0.187-0.292-0.462-0.527-0.462-0.785V40.19c0-3.963-3.464-6.19-7.427-6.19
	h-86.111C101.499,34,98,36.227,98,40.19v26.644L81.109,93.996C80.403,95.131,80,96.441,80,97.78v161.277
	c0,3.963,3.559,7.944,7.522,7.944h121.991c0.623,0,2.965,0,3.588,0c3.963,0,6.899-3.981,6.899-7.944V97.78
	C220,96.406,219.744,95.061,219.002,93.904z M206,99.886V253h-25V99.886l12.5-19.559L206,99.886z M184,48v19.734l-16.833,26.171
	C166.424,95.061,166,96.406,166,97.78V253H95V109h53.518c3.963,0,7.176-3.037,7.176-7s-3.213-7-7.176-7H98.309l11.136-18h57.013
	c3.963,0,7.176-3.037,7.176-7s-3.213-7-7.176-7H113V48H184z"/>
</svg>
