<?xml version="1.0" encoding="utf-8"?>
<!-- Generator: Adobe Illustrator 17.0.0, SVG Export Plug-In . SVG Version: 6.00 Build 0)  -->
<!DOCTYPE svg PUBLIC "-//W3C//DTD SVG 1.1//EN" "http://www.w3.org/Graphics/SVG/1.1/DTD/svg11.dtd">
<svg version="1.1" id="Layer_1" xmlns="http://www.w3.org/2000/svg" xmlns:xlink="http://www.w3.org/1999/xlink" x="0px" y="0px"
	 width="300px" height="300px" viewBox="0 0 300 300" enable-background="new 0 0 300 300" xml:space="preserve">
<g>
	<path fill="none" stroke="#D5D3D2" stroke-width="14" stroke-linecap="round" stroke-linejoin="round" stroke-miterlimit="10" d="
		M238.225,117.043h-6.036c-0.108-9.864-8.148-17.858-18.036-17.858c-2.525,0-4.975,0.528-7.222,1.519
		c-2.018-1.178-4.26-1.958-6.619-2.278c-2.16-1.51-4.627-2.537-7.212-2.998c-3.218-5.162-8.95-8.566-15.302-8.566
		c-2.827,0-5.546,0.65-7.99,1.865c-2.443-1.217-5.162-1.865-7.99-1.865c-2.443,0-4.802,0.482-6.972,1.394
		c-2.94-2.004-6.456-3.142-10.128-3.142c-7.003,0-13.085,4.006-16.08,9.845c-3.3-3.269-7.8-5.189-12.672-5.189
		c-7.087,0-13.25,4.102-16.188,10.114c-1.721,0.497-3.35,1.248-4.838,2.222c-2.174-0.919-4.536-1.404-6.974-1.404
		c-9.367,0-17.002,7.198-17.882,16.337H63.74c0.082,39.538,14.198,73.294,49.21,86.921h-0.074v7.457
		c0,2.537,2.057,4.596,4.596,4.596h67.022c2.537,0,4.596-2.057,4.596-4.596v-7.457h-0.074
		C224.026,190.334,238.143,156.581,238.225,117.043z"/>
</g>
<line fill="none" stroke="#D5D3D2" stroke-width="14" stroke-linecap="round" stroke-linejoin="round" stroke-miterlimit="10" x1="63.74" y1="130.041" x2="214.85" y2="130.043"/>
</svg>
