<?xml version="1.0" encoding="utf-8"?>
<!-- Generator: Adobe Illustrator 17.0.0, SVG Export Plug-In . SVG Version: 6.00 Build 0)  -->
<!DOCTYPE svg PUBLIC "-//W3C//DTD SVG 1.1//EN" "http://www.w3.org/Graphics/SVG/1.1/DTD/svg11.dtd">
<svg version="1.1" id="Layer_1" xmlns="http://www.w3.org/2000/svg" xmlns:xlink="http://www.w3.org/1999/xlink" x="0px" y="0px"
	 width="300px" height="300px" viewBox="0 0 300 300" enable-background="new 0 0 300 300" xml:space="preserve">
<g>
	<path fill="#D5D3D2" d="M210.518,80.111c-1.404-1.538-3.379-2.412-5.476-2.412l-55.701,0.034l-55.687,0.036
		c-2.084,0.002-4.071,0.878-5.478,2.418c-1.398,1.535-2.093,3.595-1.906,5.666l14.691,159.765l15.061,1.875l-14.243-154.9
		l47.573-0.029l47.586-0.028l-14.005,153.095l-0.226,0l14.953,1.862l14.773-161.721C212.62,83.699,211.923,81.642,210.518,80.111z"
		/>
	<path fill="#D5D3D2" d="M224.879,56.138c-0.002-1.97-0.784-3.855-2.172-5.242c-1.395-1.388-3.261-2.172-5.245-2.171L82.527,48.814
		c-4.097,0.005-7.413,3.328-7.415,7.424l0.008,12.925c0.003,3.778,2.835,6.892,6.493,7.347c0.306,0.038,0.614,0.062,0.932,0.06
		c4.096,0.002,7.412-3.321,7.407-7.418l0.001-5.508l120.105-0.079l-0.001,5.508c0.005,4.097,3.349,7.415,7.425,7.407
		c4.096,0.002,7.412-3.321,7.407-7.418L224.879,56.138z"/>
	<path fill="#D5D3D2" d="M191.694,123.076c-0.005-4.097-3.363-7.417-7.417-7.413l-68.478,0.046
		c-4.097,0.005-7.413,3.328-7.414,7.424c0.003,3.778,2.835,6.892,6.493,7.348c0.306,0.038,0.614,0.062,0.932,0.06l68.478-0.046
		C188.383,130.496,191.699,127.173,191.694,123.076z"/>
	<path fill="#D5D3D2" d="M176.905,193.012l-53.633,0.037c-4.097,0.005-7.413,3.328-7.414,7.424c0.002,3.778,2.835,6.892,6.493,7.348
		c0.306,0.038,0.614,0.062,0.932,0.06l53.633-0.037c4.096,0.001,7.412-3.322,7.407-7.418
		C184.316,196.329,180.959,193.008,176.905,193.012z"/>
	<path fill="#D5D3D2" d="M190.546,236.406l-82.172,0.037c-4.097,0.005-7.413,3.328-7.414,7.424c0.002,3.778,2.835,6.892,6.493,7.348
		c0.306,0.038,0.614,0.062,0.932,0.06l82.172-0.037c4.096,0.001,7.412-3.322,7.407-7.418
		C197.958,239.723,194.6,236.403,190.546,236.406z"/>
</g>
</svg>
