<?xml version="1.0" encoding="utf-8"?>
<!-- Generator: Adobe Illustrator 17.0.0, SVG Export Plug-In . SVG Version: 6.00 Build 0)  -->
<!DOCTYPE svg PUBLIC "-//W3C//DTD SVG 1.1//EN" "http://www.w3.org/Graphics/SVG/1.1/DTD/svg11.dtd">
<svg version="1.1" id="Layer_1" xmlns="http://www.w3.org/2000/svg" xmlns:xlink="http://www.w3.org/1999/xlink" x="0px" y="0px"
	 width="300px" height="300px" viewBox="0 0 300 300" enable-background="new 0 0 300 300" xml:space="preserve">
<path fill="#D5D3D2" d="M245.506,98.055c-0.02-4.086-3.355-7.378-7.455-7.352c-4.086,0.027-7.379,3.361-7.352,7.455
	c0.2,29.318-4.304,81.793-36.656,103.813c-18.515,12.602-44.319,13.697-76.823,3.353c45.627-32.073,74.304-76.059,75.896-78.533
	c2.212-3.441,1.217-8.021-2.223-10.234c-3.434-2.205-8.021-1.218-10.234,2.223c-0.386,0.608-30.83,47.342-77.672,78.242
	c-4.151-11.856-10.68-38.591,3.526-62.92c17.861-30.573,61.855-47.999,130.78-51.807c4.083-0.225,7.211-3.714,6.986-7.797
	c-0.225-4.083-3.694-7.201-7.804-6.987c-74.199,4.088-122.23,23.98-142.748,59.124c-18.535,31.737-8.535,65.653-3.655,78.221
	c-9.591,5.328-19.74,9.875-30.368,13.164c-3.909,1.206-6.097,5.355-4.883,9.258c0.883,2.874,3.363,4.819,6.162,5.167
	c1.007,0.125,2.061,0.038,3.102-0.277c13.231-4.092,25.688-9.903,37.292-16.674c14.758,5.561,28.493,9.14,41.18,10.72
	c23.7,2.951,43.731-1.049,59.819-12C240.407,188.331,245.725,130.33,245.506,98.055z"/>
</svg>
