<?xml version="1.0" encoding="utf-8"?>
<!-- Generator: Adobe Illustrator 17.0.0, SVG Export Plug-In . SVG Version: 6.00 Build 0)  -->
<!DOCTYPE svg PUBLIC "-//W3C//DTD SVG 1.1//EN" "http://www.w3.org/Graphics/SVG/1.1/DTD/svg11.dtd">
<svg version="1.1" id="Layer_1" xmlns="http://www.w3.org/2000/svg" xmlns:xlink="http://www.w3.org/1999/xlink" x="0px" y="0px"
	 width="300px" height="300px" viewBox="0 0 300 300" enable-background="new 0 0 300 300" xml:space="preserve">
<g>
	<path fill="#D5D3D2" d="M157.622,58.849c-23.002-1.459-47.726,10.165-54.23,35.061c-6.183,0.205-11.966,2.239-16.768,5.977
		c-4.292,3.335-7.415,7.77-9.044,12.687c-18.365,2.077-32.114,10.746-38.2,24.289c-5.44,12.098-3.61,26.386,4.656,36.391
		c7.654,9.258,19.238,13.426,32.355,11.818c4.53,5.988,11.488,9.884,18.929,10.81c3.637,0.453,7.39,0.2,11.027-0.873
		c8.722-2.558,17.109-10.362,18.238-24.818c6.849,1.771,14.337,2.541,21.868,1.099c7.958-1.523,14.972-5.226,20.973-11.053
		c2.055,4.535,5.131,9.268,9.756,13.128c1.88,1.576,3.941,2.835,6.096,3.951c-0.019,0.605,0.011,1.216,0.146,1.833
		c2.735,12.459,13.167,21.865,25.608,22.955c9.328,0.801,17.642-3.53,22.655-11.515c16.609-0.728,24.416-9.212,27.696-14.51
		c5.74-9.292,5.78-21.405,0.109-31.616c-4.096-7.367-10.673-12.685-18.541-15.282c3.919-11.793-0.339-22.4-7.643-28.684
		c-7.228-6.211-18.548-8.99-29.241-5.004C198.719,72.087,177.669,60.109,157.622,58.849z M195.009,114.929
		c2.775,1.193,5.973,0.581,8.121-1.531c6.865-6.758,15.507-5.95,20.509-1.655c5.249,4.517,5.275,11.518,0.064,18.715
		c-1.629,2.255-1.866,5.234-0.6,7.715c1.259,2.48,3.785,4.031,6.585,4.055c7.391,0.023,13.516,3.463,16.839,9.441
		c3.024,5.433,3.116,11.955,0.234,16.611c-3.228,5.226-10.07,7.884-19.25,7.482c-3.133-0.136-6.011,1.709-7.191,4.613
		c-2.549,6.236-6.853,7.226-10.018,6.952c-3.557-0.302-7.394-2.383-9.934-5.912c2.974,0.052,6.075-0.126,9.341-0.609
		c4.05-0.597,6.85-4.366,6.253-8.416c-0.597-4.057-4.372-6.858-8.415-6.26c-8.928,1.318-15.91-0.06-20.776-4.084
		c-7.972-6.586-8.569-18.581-8.573-18.659c-0.108-3.325-2.417-6.169-5.644-6.967c-3.188-0.771-6.586,0.656-8.224,3.552
		c-5.459,9.638-12.199,15.112-20.622,16.74c-8.178,1.588-16.736-0.686-23.779-3.731c-0.06-0.029-0.121-0.05-0.181-0.079
		c-8.802-3.836-15.19-8.848-15.351-8.974c-3.177-2.556-7.852-2.051-10.417,1.139c-2.565,3.19-2.059,7.858,1.132,10.423
		c0.487,0.4,6.212,4.898,14.705,9.112c0.586,8.738-2.11,14.56-7.643,16.18c-5.227,1.538-12.618-0.865-15.264-6.894
		c-1.443-3.273-5.006-5.051-8.498-4.229c-9.765,2.315-17.903,0.236-22.936-5.85c-4.701-5.691-5.708-13.881-2.564-20.862
		c4.318-9.61,15.651-15.438,31.086-15.987c3.837-0.136,6.935-3.176,7.144-7.013c0.169-3.171,1.841-6.218,4.593-8.354
		c3.261-2.539,7.636-3.421,12.289-2.509c2.015,0.378,4.147-0.07,5.825-1.294c1.671-1.226,2.751-3.097,2.98-5.158
		c2.296-20.539,21.787-30.125,39.865-28.983c15.826,1.018,34.181,10.598,33.821,34.352
		C190.469,111.009,192.247,113.745,195.009,114.929z"/>
	<path fill="#D5D3D2" d="M122.413,200.674c-1.429-3.836-5.699-5.787-9.542-4.352c-3.837,1.436-5.781,5.707-4.352,9.543
		c5.507,14.753,7.074,28.655,7.085,28.791c0.382,3.451,3.084,6.14,6.457,6.56c0.299,0.037,0.607,0.061,0.925,0.058l47.855-0.029
		c3.807,0.001,6.991-2.887,7.37-6.667c0.872-8.648,3.637-24.666,7.337-30.851c2.098-3.517,0.956-8.073-2.561-10.17
		c-3.516-2.105-8.073-0.956-10.17,2.561c-4.682,7.827-7.301,21.886-8.525,30.3l-11.222,0.008
		c-0.109-24.476,6.099-42.064,6.208-42.368c1.397-3.844-0.574-8.094-4.417-9.505c-3.857-1.405-8.107,0.566-9.518,4.415
		c-0.321,0.878-7.238,20.185-7.111,47.467l-8.87,0.004C128.282,220.352,126.184,210.769,122.413,200.674z"/>
</g>
</svg>
